<?xml version="1.0" encoding="UTF-8"?>
<!DOCTYPE svg PUBLIC "-//W3C//DTD SVG 1.1//EN" "http://www.w3.org/Graphics/SVG/1.1/DTD/svg11.dtd">
<!-- Creator: CorelDRAW 2019 (64-Bit) -->
<svg xmlns="http://www.w3.org/2000/svg" xml:space="preserve" width="100px" height="100px" version="1.1" style="shape-rendering:geometricPrecision; text-rendering:geometricPrecision; image-rendering:optimizeQuality; fill-rule:evenodd; clip-rule:evenodd"
viewBox="0 0 100 100"
 xmlns:xlink="http://www.w3.org/1999/xlink">
 <defs>
  <style type="text/css">
   <![CDATA[
    .fil0 {fill:black}
   ]]>
  </style>
 </defs>
 <g id="Vrstva_x0020_1">
  <metadata id="CorelCorpID_0Corel-Layer"/>
  <g id="_1476623911936">
   <path class="fil0" d="M29.97 79.28c1.08,1.71 1.65,3.69 1.65,5.71 0,5.92 -4.81,10.73 -10.72,10.73 -5.92,0 -10.72,-4.81 -10.72,-10.73 0,-2.03 0.57,-4.01 1.66,-5.73l6.15 -10.39c0.61,-1.02 1.71,-1.65 2.91,-1.65 1.19,0 2.3,0.63 2.9,1.65l6.17 10.41zm60.11 -55.46l-22.08 0 0 -0.46c0,-1.87 -1.52,-3.38 -3.38,-3.38l-5.06 0 0 -2.92 13.81 0c1.86,0 3.38,-1.52 3.38,-3.38l0 -1.92c0,-4.12 -3.36,-7.47 -7.48,-7.47l-30.75 0c-4.13,0 -7.48,3.35 -7.48,7.47l0 1.92c0,1.86 1.51,3.38 3.38,3.38l13.81 0 0 2.92 -5.06 0c-1.87,0 -3.38,1.51 -3.38,3.38l0 0.46 -9.01 0c-12.23,0 -22.18,9.95 -22.18,22.18l0 11.34c-1.21,0.52 -2.06,1.72 -2.06,3.11 0,1.87 1.51,3.38 3.38,3.38l2.06 0 16.09 0 1.84 0c1.87,0 3.38,-1.51 3.38,-3.38 0,-1.31 -0.75,-2.45 -1.85,-3l0 -7.63c0,-1.99 1.63,-3.62 3.62,-3.62l4.73 0 0 1.15c0,1.87 1.51,3.38 3.38,3.38l21.45 0c1.86,0 3.38,-1.51 3.38,-3.38l0 -0.15 22.08 0c1.86,0 3.38,-1.51 3.38,-3.37l0 -16.63c0,-1.87 -1.52,-3.38 -3.38,-3.38z"/>
   <g>
   </g>
   <g>
   </g>
   <g>
   </g>
   <g>
   </g>
   <g>
   </g>
   <g>
   </g>
   <g>
   </g>
   <g>
   </g>
   <g>
   </g>
   <g>
   </g>
   <g>
   </g>
   <g>
   </g>
   <g>
   </g>
   <g>
   </g>
   <g>
   </g>
  </g>
 </g>
</svg>
