<?xml version="1.0" encoding="UTF-8"?>
<!DOCTYPE svg PUBLIC "-//W3C//DTD SVG 1.1//EN" "http://www.w3.org/Graphics/SVG/1.1/DTD/svg11.dtd">
<!-- Creator: CorelDRAW 2019 (64-Bit) -->
<svg xmlns="http://www.w3.org/2000/svg" xml:space="preserve" width="100px" height="100px" version="1.1" style="shape-rendering:geometricPrecision; text-rendering:geometricPrecision; image-rendering:optimizeQuality; fill-rule:evenodd; clip-rule:evenodd"
viewBox="0 0 100 100"
 xmlns:xlink="http://www.w3.org/1999/xlink">
 <defs>
  <style type="text/css">
   <![CDATA[
    .fil0 {fill:black}
   ]]>
  </style>
 </defs>
 <g id="Vrstva_x0020_1">
  <metadata id="CorelCorpID_0Corel-Layer"/>
  <g id="_1442075138144">
   <g>
    <g>
     <g>
      <path class="fil0" d="M64.38 56.69c-0.55,-0.34 -1.18,-0.51 -1.89,-0.51 -0.51,0 -0.98,0.1 -1.4,0.29 -0.42,0.18 -0.79,0.46 -1.09,0.81 -0.31,0.36 -0.56,0.84 -0.74,1.42 -0.19,0.59 -0.28,1.27 -0.28,2.01 0,0.76 0.09,1.44 0.28,2.04 0.18,0.59 0.44,1.08 0.77,1.45 0.32,0.38 0.69,0.66 1.11,0.84 0.41,0.19 0.88,0.28 1.39,0.28 0.65,0 1.23,-0.16 1.78,-0.48 0.53,-0.32 0.96,-0.82 1.29,-1.5 0.33,-0.7 0.49,-1.58 0.49,-2.63 0,-0.96 -0.15,-1.81 -0.46,-2.5 -0.3,-0.68 -0.71,-1.17 -1.25,-1.52z"/>
      <path class="fil0" d="M52.19 4.55c-0.58,-0.59 -1.36,-0.92 -2.2,-0.91 -0.83,0 -1.62,0.34 -2.2,0.92 -1.28,1.32 -31.42,32.42 -31.42,58.17 0,18.54 15.08,33.63 33.63,33.63 18.55,0 33.63,-15.09 33.63,-33.63 0,-26.17 -30.16,-56.88 -31.44,-58.18zm-10.78 63.39c-0.36,0.39 -0.83,0.58 -1.38,0.58 -0.57,0 -1.03,-0.2 -1.38,-0.59 -0.33,-0.38 -0.5,-0.92 -0.5,-1.61l0 -4.3 -5.26 0 0 4.3c0,0.7 -0.17,1.25 -0.53,1.62 -0.36,0.39 -0.82,0.58 -1.38,0.58 -0.56,0 -1.03,-0.2 -1.38,-0.59 -0.33,-0.38 -0.5,-0.92 -0.5,-1.61l0 -11.14c0,-0.69 0.17,-1.23 0.5,-1.61 0.34,-0.39 0.81,-0.59 1.38,-0.59 0.57,0 1.03,0.19 1.39,0.58 0.35,0.37 0.52,0.92 0.52,1.62l0 3.59 5.26 0 0 -3.59c0,-0.69 0.17,-1.24 0.51,-1.61 0.35,-0.39 0.81,-0.59 1.37,-0.59 0.56,0 1.03,0.19 1.38,0.58 0.35,0.37 0.53,0.92 0.53,1.62l0 11.14 0 0c0,0.7 -0.18,1.25 -0.53,1.62zm11.49 7.98c-0.24,0.25 -0.58,0.38 -1.01,0.38l-5.04 0c-0.47,0 -0.85,-0.14 -1.13,-0.42 -0.28,-0.28 -0.43,-0.62 -0.43,-1 0,-0.23 0.08,-0.51 0.23,-0.84 0.15,-0.32 0.31,-0.58 0.49,-0.77 0.61,-0.64 1.17,-1.19 1.67,-1.64 0.51,-0.47 0.87,-0.78 1.1,-0.93 0.34,-0.24 0.63,-0.49 0.86,-0.73 0.21,-0.23 0.37,-0.47 0.48,-0.71 0.1,-0.21 0.16,-0.43 0.16,-0.63 0,-0.2 -0.05,-0.38 -0.15,-0.54 -0.09,-0.16 -0.22,-0.28 -0.39,-0.37 -0.17,-0.09 -0.36,-0.14 -0.56,-0.14 -0.44,0 -0.77,0.19 -1.03,0.58 0,0.01 -0.05,0.09 -0.18,0.46 -0.12,0.36 -0.27,0.64 -0.44,0.85 -0.16,0.19 -0.45,0.41 -0.95,0.41 -0.35,0 -0.66,-0.12 -0.9,-0.36 -0.24,-0.24 -0.36,-0.55 -0.36,-0.94 0,-0.38 0.09,-0.77 0.25,-1.17 0.16,-0.39 0.41,-0.76 0.73,-1.08 0.33,-0.32 0.74,-0.58 1.23,-0.77 0.48,-0.2 1.05,-0.3 1.69,-0.3 0.76,0 1.42,0.13 1.97,0.37 0.38,0.18 0.71,0.41 0.99,0.71 0.28,0.3 0.51,0.65 0.66,1.03 0.16,0.39 0.24,0.8 0.24,1.22 0,0.65 -0.17,1.25 -0.49,1.79 -0.3,0.5 -0.62,0.9 -0.95,1.19 -0.3,0.27 -0.78,0.68 -1.49,1.25 -0.45,0.37 -0.8,0.68 -1.05,0.93l2.59 0.01c0.46,0 0.83,0.1 1.1,0.31 0.3,0.24 0.46,0.57 0.46,0.96 0,0.34 -0.12,0.65 -0.35,0.89zm16.55 -12.06c-0.31,0.95 -0.79,1.79 -1.42,2.49 -0.64,0.7 -1.43,1.25 -2.35,1.62 -0.91,0.37 -1.97,0.55 -3.14,0.55 -1.16,0 -2.21,-0.19 -3.14,-0.57 -0.94,-0.38 -1.73,-0.93 -2.36,-1.62 -0.62,-0.7 -1.1,-1.54 -1.42,-2.51 -0.31,-0.96 -0.47,-2 -0.47,-3.11 0,-1.13 0.17,-2.19 0.49,-3.14 0.33,-0.96 0.82,-1.79 1.45,-2.47 0.64,-0.69 1.42,-1.22 2.33,-1.58 0.9,-0.36 1.93,-0.54 3.07,-0.54 1.54,0 2.88,0.32 4,0.95 1.13,0.64 2,1.56 2.57,2.74 0.57,1.15 0.86,2.52 0.86,4.06 0,1.14 -0.16,2.19 -0.47,3.13z"/>
     </g>
    </g>
   </g>
   <g>
   </g>
   <g>
   </g>
   <g>
   </g>
   <g>
   </g>
   <g>
   </g>
   <g>
   </g>
   <g>
   </g>
   <g>
   </g>
   <g>
   </g>
   <g>
   </g>
   <g>
   </g>
   <g>
   </g>
   <g>
   </g>
   <g>
   </g>
   <g>
   </g>
  </g>
 </g>
</svg>
