<?xml version="1.0" encoding="UTF-8"?>
<!DOCTYPE svg PUBLIC "-//W3C//DTD SVG 1.1//EN" "http://www.w3.org/Graphics/SVG/1.1/DTD/svg11.dtd">
<!-- Creator: CorelDRAW 2019 (64-Bit) -->
<svg xmlns="http://www.w3.org/2000/svg" xml:space="preserve" width="100px" height="100px" version="1.1" style="shape-rendering:geometricPrecision; text-rendering:geometricPrecision; image-rendering:optimizeQuality; fill-rule:evenodd; clip-rule:evenodd"
viewBox="0 0 100 100"
 xmlns:xlink="http://www.w3.org/1999/xlink">
 <defs>
  <style type="text/css">
   <![CDATA[
    .fil0 {fill:black}
   ]]>
  </style>
 </defs>
 <g id="Vrstva_x0020_1">
  <metadata id="CorelCorpID_0Corel-Layer"/>
  <g id="_1476513722640">
   <g>
    <path class="fil0" d="M88.92 86.05c-1.03,-2.52 -2.08,-5.04 -3.23,-7.53 -1.01,-2.22 -2.31,-2.87 -4.74,-2.32 -3.08,0.71 -6.1,1.65 -9.18,2.28 -5.95,1.24 -11.92,1.36 -17.79,-0.5 -7.37,-2.31 -11.29,-7.65 -13.69,-14.53l19.96 0c1.57,0 2.83,-1.27 2.83,-2.83l0 -6.3c0,-1.57 -1.26,-2.83 -2.83,-2.83l-21.88 0c0,-1.76 -0.02,-3.44 0,-5.12l21.88 0c1.57,0 2.83,-1.27 2.83,-2.84l0 -6.29c0,-1.57 -1.26,-2.83 -2.83,-2.83l-19.12 0c0,-0.08 0,-0.15 0.03,-0.19 2.3,-5.22 5.65,-9.41 11.14,-11.59 6.38,-2.53 12.91,-2.47 19.49,-1.11 3.11,0.63 6.17,1.59 9.29,2.29 2.28,0.52 3.6,-0.15 4.57,-2.27 1.13,-2.45 2.17,-4.94 3.2,-7.44 0.97,-2.35 0.4,-4.02 -1.82,-5.32 -0.55,-0.32 -1.13,-0.59 -1.72,-0.82 -9.22,-3.6 -18.73,-4.94 -28.54,-3.37 -6.9,1.11 -13.35,3.48 -18.91,7.81 -7.02,5.43 -11.58,12.6 -14.22,21.03l-0.32 0.98 -9.83 0c-1.57,0 -2.83,1.26 -2.83,2.83l0 6.29c0,1.57 1.26,2.84 2.83,2.84l7.74 0c0,1.72 0,3.38 0,5.12l-7.74 0c-1.57,0 -2.83,1.26 -2.83,2.83l0 6.3c0,1.56 1.26,2.83 2.83,2.83l9.33 0c0.71,2.29 1.3,4.63 2.2,6.82 4.73,11.41 12.64,19.51 24.56,23.38 9.85,3.19 19.78,3.1 29.7,0.36 2.59,-0.71 5.15,-1.62 7.6,-2.75 2.37,-1.09 2.98,-2.93 2.04,-5.21z"/>
   </g>
   <g>
   </g>
   <g>
   </g>
   <g>
   </g>
   <g>
   </g>
   <g>
   </g>
   <g>
   </g>
   <g>
   </g>
   <g>
   </g>
   <g>
   </g>
   <g>
   </g>
   <g>
   </g>
   <g>
   </g>
   <g>
   </g>
   <g>
   </g>
   <g>
   </g>
  </g>
  <rect class="fil0" transform="matrix(0.884439 0.90331 -0.90331 0.884439 9.40909 -0.491441)" width="102" height="10" rx="8" ry="8"/>
 </g>
</svg>
