<?xml version="1.0" encoding="UTF-8"?>
<!DOCTYPE svg PUBLIC "-//W3C//DTD SVG 1.1//EN" "http://www.w3.org/Graphics/SVG/1.1/DTD/svg11.dtd">
<!-- Creator: CorelDRAW 2019 (64-Bit) -->
<svg xmlns="http://www.w3.org/2000/svg" xml:space="preserve" width="100px" height="100px" version="1.1" style="shape-rendering:geometricPrecision; text-rendering:geometricPrecision; image-rendering:optimizeQuality; fill-rule:evenodd; clip-rule:evenodd"
viewBox="0 0 100 100"
 xmlns:xlink="http://www.w3.org/1999/xlink">
 <defs>
  <style type="text/css">
   <![CDATA[
    .fil0 {fill:#2B2A29}
   ]]>
  </style>
 </defs>
 <g id="Vrstva_x0020_1">
  <metadata id="CorelCorpID_0Corel-Layer"/>
  <path class="fil0" d="M40.97 6.56c-1.55,-1.35 -5.24,-3.51 -5.84,2.1 -2.16,14.51 -17.75,24.65 -17.75,38.95 0,12.06 9.77,21.84 21.83,21.84 12.06,0 21.84,-9.78 21.84,-21.84 0,-10.94 -4.39,-27.42 -20.08,-41.05zm-10.3 52.63c-0.34,0.46 -0.85,0.7 -1.38,0.7 -0.35,0 -0.71,-0.11 -1.02,-0.34 -0.19,-0.14 -4.71,-3.56 -5.69,-10.02 -0.97,-6.45 3.4,-12.5 3.58,-12.76 0.57,-0.76 1.64,-0.93 2.41,-0.37 0.77,0.57 0.93,1.64 0.37,2.41 -0.05,0.08 -3.71,5.19 -2.96,10.21 0.76,5.01 4.31,7.74 4.35,7.77 0.76,0.57 0.91,1.65 0.34,2.4z"/>
  <path class="fil0" d="M71.17 59.11c-0.89,-0.77 -2.99,-2 -3.34,1.2 -1.23,8.28 -10.13,14.07 -10.13,22.23 0,6.88 5.58,12.46 12.46,12.46 6.88,0 12.46,-5.58 12.46,-12.46 0,-6.24 -2.5,-15.65 -11.45,-23.43zm-5.88 30.04c-0.19,0.26 -0.49,0.39 -0.79,0.39 -0.2,0 -0.4,-0.06 -0.58,-0.19 -0.11,-0.08 -2.69,-2.03 -3.25,-5.71 -0.55,-3.69 1.94,-7.14 2.04,-7.29 0.33,-0.43 0.94,-0.53 1.38,-0.21 0.44,0.32 0.53,0.94 0.21,1.37 -0.03,0.05 -2.12,2.97 -1.69,5.83 0.44,2.86 2.46,4.42 2.48,4.43 0.43,0.33 0.52,0.95 0.2,1.38z"/>
  <g id="_1442035433072">
  </g>
  <g id="_1442035432464">
  </g>
  <g id="_1442035432592">
  </g>
  <g id="_1442035430800">
  </g>
  <g id="_1442035430192">
  </g>
  <g id="_1442035427248">
  </g>
  <g id="_1442035426704">
  </g>
  <g id="_1442035425872">
  </g>
  <g id="_1442035424560">
  </g>
  <g id="_1442035423664">
  </g>
  <g id="_1442035423888">
  </g>
  <g id="_1442035422320">
  </g>
  <g id="_1442035421648">
  </g>
  <g id="_1442035422384">
  </g>
  <g id="_1442035419952">
  </g>
 </g>
</svg>
